<svg width="144" height="88" viewBox="0 0 144 88" fill="none" xmlns="http://www.w3.org/2000/svg">
<rect width="144" height="88" rx="4" fill="#4D4D4D"/>
<path d="M84 26H60C58.4087 26 56.8826 26.6321 55.7574 27.7574C54.6321 28.8826 54 30.4087 54 32V56C54 57.5913 54.6321 59.1174 55.7574 60.2426C56.8826 61.3679 58.4087 62 60 62H84C85.5913 62 87.1174 61.3679 88.2426 60.2426C89.3679 59.1174 90 57.5913 90 56V32C90 30.4087 89.3679 28.8826 88.2426 27.7574C87.1174 26.6321 85.5913 26 84 26ZM60 30H84C84.5304 30 85.0391 30.2107 85.4142 30.5858C85.7893 30.9609 86 31.4696 86 32V48.72L79.6 43.26C78.6084 42.4441 77.3641 41.998 76.08 41.998C74.7959 41.998 73.5516 42.4441 72.56 43.26L58 55.4V32C58 31.4696 58.2107 30.9609 58.5858 30.5858C58.9609 30.2107 59.4696 30 60 30ZM84 58H61.12L75.12 46.32C75.3889 46.1203 75.715 46.0125 76.05 46.0125C76.385 46.0125 76.7111 46.1203 76.98 46.32L86 54V56C86 56.5304 85.7893 57.0391 85.4142 57.4142C85.0391 57.7893 84.5304 58 84 58Z" fill="#A7A7A7"/>
<path d="M64 40C65.6569 40 67 38.6569 67 37C67 35.3431 65.6569 34 64 34C62.3431 34 61 35.3431 61 37C61 38.6569 62.3431 40 64 40Z" fill="#A7A7A7"/>
</svg>
