<svg width="14" height="14" viewBox="0 0 14 14" fill="none" xmlns="http://www.w3.org/2000/svg">
<path d="M10.7067 13C10.6001 13.0004 10.4949 12.9753 10.4 12.9267L7 11.1467L3.6 12.9267C3.4896 12.9847 3.36512 13.0106 3.24072 13.0015C3.11632 12.9923 2.99699 12.9484 2.89629 12.8748C2.79559 12.8012 2.71756 12.7008 2.67108 12.585C2.62459 12.4693 2.61152 12.3428 2.63333 12.22L3.3 8.46667L0.553333 5.8C0.467638 5.71449 0.406848 5.60725 0.377485 5.4898C0.348123 5.37235 0.351297 5.24912 0.386667 5.13334C0.425307 5.01485 0.496384 4.90957 0.591834 4.82944C0.687283 4.74931 0.803282 4.69754 0.926667 4.68L4.72667 4.12667L6.4 0.70667C6.45459 0.593956 6.53982 0.498898 6.64594 0.432386C6.75206 0.365874 6.87476 0.330597 7 0.330597C7.12524 0.330597 7.24794 0.365874 7.35406 0.432386C7.46018 0.498898 7.54541 0.593956 7.6 0.70667L9.29333 4.12L13.0933 4.67334C13.2167 4.69087 13.3327 4.74265 13.4282 4.82278C13.5236 4.90291 13.5947 5.00819 13.6333 5.12667C13.6687 5.24245 13.6719 5.36568 13.6425 5.48313C13.6132 5.60058 13.5524 5.70782 13.4667 5.79334L10.72 8.46L11.3867 12.2133C11.4105 12.3383 11.398 12.4675 11.3508 12.5856C11.3035 12.7038 11.2234 12.8059 11.12 12.88C10.9993 12.9646 10.8539 13.0068 10.7067 13Z" fill="#4D4D4D"/>
</svg>
